<svg id="Vrstva_1" data-name="Vrstva 1" xmlns="http://www.w3.org/2000/svg" viewBox="0 0 1325.52 946.17"><defs><style>.cls-1{fill:#fff;}</style></defs><path class="cls-1" d="M596.9,879.46a79,79,0,0,1,.65,9.93q0,24.72-15.95,40.76t-40.51,16q-24.74,0-41.74-16.43t-17-40.51q0-23.93,16.84-40.44t41.41-16.51q18.72,0,33.2,8.54a44.58,44.58,0,0,1,20,24.16l-25.87,7.48q-8-15.62-27.34-15.62a29.71,29.71,0,0,0-22.29,9.28q-9,9.27-8.95,23.11t9.19,23.18a30.75,30.75,0,0,0,22.86,9.36q10.58,0,18.14-5.21a27.65,27.65,0,0,0,10.67-14.32H536.86V879.46Z"/><path class="cls-1" d="M659.07,943.74H631.72V909.89l-42.14-75.18h29.29l26.85,47.84,26.52-47.84h30l-43.12,74.85Z"/><path class="cls-1" d="M832.85,943.74h-26V889.39l-28.47,54.35h-16.6L733.1,889.07v54.67h-26v-109h26.36L770,902.24l36.61-67.53h26.2Z"/><path class="cls-1" d="M90.32,623.27q28.91,0,46.34,16.92T154.1,684.7q0,28.63-18.35,45.94T86.68,748H50v49.72H0V623.27Zm-9.63,85.12q10.43,0,17.31-6.25A20.79,20.79,0,0,0,104.9,686,19.41,19.41,0,0,0,98,670.64q-6.9-6-17.31-6H50v43.74Z"/><path class="cls-1" d="M302.44,797.67H163.7V623.27H301.4v42.16H213.68v25.78h80.69v38.26H213.68v26h88.76Z"/><path class="cls-1" d="M419.81,797.67,371.92,742h-6.77v55.71h-50V623.27H408.1q28.11,0,45.42,16.13t17.31,42.44q0,20.82-11.19,35.79t-30.72,21l51,59.09ZM398.73,702.4q10.41,0,16.66-5.34a17.45,17.45,0,0,0,6.24-13.92,16.42,16.42,0,0,0-6.24-13.41q-6.25-5.09-16.66-5.08H365.15V702.4Z"/><path class="cls-1" d="M691.8,797.67H642.86V718.8l-38.79,78.87H571.54l-38.79-78.35v78.35H483.82V623.27h52.84l51,95.27L639,623.27H691.8Z"/><path class="cls-1" d="M863.43,645.78q27.2,26.43,27.2,64.69t-27.2,64.68q-27.2,26.43-66.77,26.43t-66.77-26.43q-27.2-26.42-27.2-64.68t27.2-64.69q27.2-26.41,66.77-26.42T863.43,645.78ZM827.77,743.4q12.36-13.14,12.36-32.93,0-19.53-12.36-32.8t-31.11-13.28q-18.75,0-31.11,13.28t-12.36,32.8q0,19.78,12.36,32.93t31.11,13.14Q815.4,756.54,827.77,743.4Z"/><path class="cls-1" d="M1073.08,797.67h-41.39l-80.17-89.8v89.8h-50V623.27h41.12l80.18,92.93V623.27h50.24Z"/><path class="cls-1" d="M1088.14,797.67V623.27h50v174.4Zm2.34-190.55L1110,565.47h58.56l-33.06,41.65Z"/><path class="cls-1" d="M1261,797.67l-48.68-61.43h-8.85v61.43h-50V623.27h50v65.85h6.25l51.8-65.85h59.09L1252.64,711l72.88,86.68Z"/><path class="cls-1" d="M833.92,376.29,810.2,355.58l-12.46-75.34,29.84-22.18a6.5,6.5,0,0,0,2.63-5.22V193.35a6.53,6.53,0,0,0-2.67-5.26l-17-12.39H823.7a6.51,6.51,0,0,0,6.51-6.51V133.57a6.51,6.51,0,0,0-6.51-6.51H797.15V85.82a6.5,6.5,0,0,0-2.63-5.22L687.83,1.29A6.51,6.51,0,0,0,683.94,0H629.32a6.49,6.49,0,0,0-3.89,1.29L518.73,80.6c-.11.08-.16.22-.26.31a6.43,6.43,0,0,0-1.26,1.49,5.71,5.71,0,0,0-.45.68,6.32,6.32,0,0,0-.65,2.74v41.24H489.56a6.5,6.5,0,0,0-6.51,6.51v35.62a6.5,6.5,0,0,0,6.51,6.51h13.11l-16.95,12.39a6.5,6.5,0,0,0-2.67,5.26v59.49a6.5,6.5,0,0,0,2.63,5.22l29.87,22.21-12.21,75-24,21a6.51,6.51,0,0,0,6.39,11.06L498.36,383l-9.93,54.86a6.56,6.56,0,0,0,1.1,4.94l49,68.74a6.55,6.55,0,0,0,2.86,2.26l78.77,31.81,31.12,43.65a6.52,6.52,0,0,0,10.61,0L693,545.68l78.82-31.84a6.49,6.49,0,0,0,2.86-2.26l49-68.74a6.52,6.52,0,0,0,1.11-4.94l-9.94-54.84,12.62,4.29a6.38,6.38,0,0,0,2.1.35,6.51,6.51,0,0,0,4.28-11.41ZM713.09,495.48,708.62,468l30.82-54.33a6.52,6.52,0,0,0,.44-5.5L718.07,350l31.69,10.8,16.56,61.75ZM547,422.59l16.56-61.76L595.2,350l-21.79,58.09a6.51,6.51,0,0,0,.43,5.5l30.8,54.28-4.48,27.53Zm-31.8-60.32,88.9-77.62,39.81,35L515,363.63ZM714.7,272.19,707,251.39l77.12-67.81v90.55l-36.3,27ZM620,251.71l13.85-37.5H679.4l13.85,37.5h0l8.25,22.34-44.88,39.49-44.88-39.49L620,251.76S620,251.73,620,251.71Zm72.31-40.12L760.56,187,702.18,238.3Zm-81.25,26.7L552.69,187l68.24,24.62Zm71.72-37.11H630.46L559.85,175.7H753.41Zm-153.66-17.6,77.1,67.8-7.68,20.81-33.12,28.92-36.3-27ZM608,447.39l-21.31-37.55,22.5-60,.21.15,12.88,9.58Zm96.12-97.55,22.51,60-21.33,37.6L691,359.58Zm-34.74-30.16,39.81-35,88.73,77.47.26,1.46Zm88.51-9.8L786,289l8.61,52.93Zm59.32-60.32-20,14.9V182l20,14.64ZM714.37,37.24,771,79.31h-43.7c0-.47.07-.93.07-1.41A70.29,70.29,0,0,0,714.37,37.24ZM585.92,77.9c0,.48.06.94.07,1.41h-43.7l56.56-42A70.25,70.25,0,0,0,585.92,77.9ZM725.84,92.33h58.29v34.73H707.34A70.62,70.62,0,0,0,725.84,92.33Zm-196.71,0h58.28a70.54,70.54,0,0,0,18.5,34.73H529.13Zm-33.06,47.75H623a70.58,70.58,0,0,0,67.27,0H817.19v22.6H496.07Zm0,56.57,20-14.64v82.45l-20-14.9ZM527.3,289l28.09,20.88-36.87,32.2Zm20.77,213.48-46.34-65,10.74-59.29,36.23-12.35-15.12,56.35a6.53,6.53,0,0,0,1,5.53l64.26,88h0l7.25,10.17ZM656.62,574.3l-45.68-64,23.92-147H678.4l23.9,147ZM811.56,437.52l-46.34,65L707.1,526l7.2-10.1s.08-.05.11-.09l64.27-88a6.53,6.53,0,0,0,1-5.53L764.6,365.9l36.22,12.35Z"/></svg>