<?xml version="1.0" encoding="UTF-8" standalone="no"?>
<!-- Created with Inkscape (http://www.inkscape.org/) -->

<svg
   version="1.1"
   id="svg1"
   width="600"
   height="600"
   viewBox="0 0 600 600"
   sodipodi:docname="base_minimal_thick_noBorder.svg"
   inkscape:version="1.3.2 (091e20ef0f, 2023-11-25, custom)"
   inkscape:export-filename="logo_cerne.png"
   inkscape:export-xdpi="96"
   inkscape:export-ydpi="96"
   xmlns:inkscape="http://www.inkscape.org/namespaces/inkscape"
   xmlns:sodipodi="http://sodipodi.sourceforge.net/DTD/sodipodi-0.dtd"
   xmlns="http://www.w3.org/2000/svg"
   xmlns:svg="http://www.w3.org/2000/svg">
  <defs
     id="defs1">
    <inkscape:path-effect
       effect="mirror_symmetry"
       start_point="218.82083,363.60083"
       end_point="218.82083,592.23167"
       center_point="218.82083,477.91625"
       id="path-effect9"
       is_visible="true"
       lpeversion="1.2"
       lpesatellites=""
       mode="free"
       discard_orig_path="false"
       fuse_paths="false"
       oposite_fuse="false"
       split_items="false"
       split_open="false"
       link_styles="false" />
    <inkscape:path-effect
       effect="mirror_symmetry"
       start_point="219.45932,306.45784"
       end_point="219.45932,386.98062"
       center_point="219.45932,346.71923"
       id="path-effect8"
       is_visible="true"
       lpeversion="1.2"
       lpesatellites=""
       mode="free"
       discard_orig_path="false"
       fuse_paths="false"
       oposite_fuse="false"
       split_items="false"
       split_open="false"
       link_styles="false" />
    <inkscape:path-effect
       effect="mirror_symmetry"
       start_point="219.51809,302.9956"
       end_point="219.51809,428.36286"
       center_point="219.51809,365.67923"
       id="path-effect7"
       is_visible="true"
       lpeversion="1.2"
       lpesatellites=""
       mode="free"
       discard_orig_path="false"
       fuse_paths="false"
       oposite_fuse="false"
       split_items="false"
       split_open="false"
       link_styles="false" />
    <inkscape:path-effect
       effect="mirror_symmetry"
       start_point="219.39718,130.82479"
       end_point="219.39718,290.54761"
       center_point="219.39718,210.6862"
       id="path-effect6"
       is_visible="true"
       lpeversion="1.2"
       lpesatellites=""
       mode="free"
       discard_orig_path="false"
       fuse_paths="false"
       oposite_fuse="false"
       split_items="false"
       split_open="false"
       link_styles="false" />
    <inkscape:path-effect
       effect="mirror_symmetry"
       start_point="219.32738,225.35527"
       end_point="219.32738,256.72511"
       center_point="219.32738,241.04019"
       id="path-effect5"
       is_visible="true"
       lpeversion="1.2"
       lpesatellites=""
       mode="free"
       discard_orig_path="false"
       fuse_paths="false"
       oposite_fuse="false"
       split_items="false"
       split_open="false"
       link_styles="false" />
    <inkscape:path-effect
       effect="mirror_symmetry"
       start_point="219.39184,177.47562"
       end_point="219.39184,251.30675"
       center_point="219.39184,214.39119"
       id="path-effect4"
       is_visible="true"
       lpeversion="1.2"
       lpesatellites=""
       mode="free"
       discard_orig_path="false"
       fuse_paths="false"
       oposite_fuse="false"
       split_items="false"
       split_open="false"
       link_styles="false" />
    <inkscape:path-effect
       effect="mirror_symmetry"
       start_point="219.71101,239.77047"
       end_point="219.71101,279.21459"
       center_point="219.71101,259.49253"
       id="path-effect3"
       is_visible="true"
       lpeversion="1.2"
       lpesatellites=""
       mode="free"
       discard_orig_path="false"
       fuse_paths="false"
       oposite_fuse="false"
       split_items="false"
       split_open="false"
       link_styles="false" />
    <inkscape:path-effect
       effect="mirror_symmetry"
       start_point="219.49152,300.18845"
       end_point="219.49152,481.97089"
       center_point="219.49152,391.07967"
       id="path-effect2"
       is_visible="true"
       lpeversion="1.2"
       lpesatellites=""
       mode="free"
       discard_orig_path="false"
       fuse_paths="false"
       oposite_fuse="false"
       split_items="false"
       split_open="false"
       link_styles="false" />
    <inkscape:path-effect
       effect="mirror_symmetry"
       start_point="219.52257,259.29198"
       end_point="219.52257,346.64284"
       center_point="219.52257,302.96741"
       id="path-effect1"
       is_visible="true"
       lpeversion="1.2"
       lpesatellites=""
       mode="free"
       discard_orig_path="false"
       fuse_paths="false"
       oposite_fuse="false"
       split_items="false"
       split_open="false"
       link_styles="false" />
  </defs>
  <sodipodi:namedview
     id="namedview1"
     pagecolor="#505050"
     bordercolor="#eeeeee"
     borderopacity="1"
     inkscape:showpageshadow="0"
     inkscape:pageopacity="0"
     inkscape:pagecheckerboard="0"
     inkscape:deskcolor="#505050"
     inkscape:zoom="1.4142136"
     inkscape:cx="330.21886"
     inkscape:cy="333.40084"
     inkscape:window-width="2544"
     inkscape:window-height="1390"
     inkscape:window-x="1925"
     inkscape:window-y="37"
     inkscape:window-maximized="0"
     inkscape:current-layer="g1" />
  <g
     inkscape:groupmode="layer"
     inkscape:label="Image"
     id="g1">
    <path
       style="fill:#ac0811;fill-opacity:1;stroke:#ac0811;stroke-width:2;stroke-linecap:butt;stroke-linejoin:miter;stroke-dasharray:none;stroke-opacity:1"
       d="m 228.39735,346.22113 c -3.79479,8.34124 -3.55498,10.66184 -2.11907,16.71477 2.56476,10.81146 10.58257,12.16725 9.74472,29.44677 -0.93821,19.34922 -8.69548,41.29815 -5.36181,55.159 7.51744,31.25632 20.4081,35.11067 29.98002,35.10141 16.8786,-0.0163 23.70796,-15.77408 24.4833,-39.52048 0.37861,-11.5957 -4.84111,-22.97772 -6.651,-41.45586 -1.10901,-11.32239 -8.77321,-23.90945 -10.21032,-36.30057 -1.29963,-11.20571 3.57213,-26.90723 2.73082,-41.72758 -0.59288,-10.44389 -1.36454,-16.60281 -8.37666,-23.17005 m -52.03166,45.75259 c 3.79479,8.34124 3.55498,10.66184 2.11907,16.71477 -2.56476,10.81146 -10.58257,12.16725 -9.74472,29.44677 0.93821,19.34922 8.69548,41.29815 5.36181,55.159 -7.51744,31.25632 -20.4081,35.11067 -29.98002,35.10141 -16.8786,-0.0163 -23.70796,-15.77408 -24.4833,-39.52048 -0.37861,-11.5957 4.84111,-22.97772 6.651,-41.45586 1.10901,-11.32239 8.77321,-23.90945 10.21032,-36.30057 1.29963,-11.20571 -3.57213,-26.90723 -2.73082,-41.72758 0.59288,-10.44389 1.36454,-16.60281 8.37666,-23.17005"
       id="path2"
       sodipodi:nodetypes="cssssssssc"
       inkscape:path-effect="#path-effect2"
       inkscape:original-d="m 228.39735,346.22113 c -3.79479,8.34124 -3.55498,10.66184 -2.11907,16.71477 2.56476,10.81146 10.58257,12.16725 9.74472,29.44677 -0.93821,19.34922 -8.69548,41.29815 -5.36181,55.159 7.51744,31.25632 20.4081,35.11067 29.98002,35.10141 16.8786,-0.0163 23.70796,-15.77408 24.4833,-39.52048 0.37861,-11.5957 -4.84111,-22.97772 -6.651,-41.45586 -1.10901,-11.32239 -8.77321,-23.90945 -10.21032,-36.30057 -1.29963,-11.20571 3.57213,-26.90723 2.73082,-41.72758 -0.59288,-10.44389 -1.36454,-16.60281 -8.37666,-23.17005"
       transform="matrix(1.3326056,0,0,1.3326056,5.9750923,-46.567997)" />
    <path
       style="fill:#d3a949;fill-opacity:1;stroke:#d3a949;stroke-width:2;stroke-linecap:butt;stroke-linejoin:miter;stroke-dasharray:none;stroke-opacity:1"
       d="m 290.96395,242.19441 c 5.31375,1.9148 11.4924,9.06116 12.59606,13.40417 3.6885,14.51458 -10.13793,32.49639 -25.74526,25.29989 -3.20254,-1.47668 -9.58275,-7.17991 -6.39694,-16.89535 M 148.45807,242.19441 c -5.31375,1.9148 -11.4924,9.06116 -12.59606,13.40417 -3.6885,14.51458 10.13793,32.49639 25.74526,25.29989 3.20254,-1.47668 9.58275,-7.17991 6.39694,-16.89535"
       id="path3"
       sodipodi:nodetypes="cssc"
       inkscape:path-effect="#path-effect3"
       inkscape:original-d="m 290.96395,242.19441 c 5.31375,1.9148 11.4924,9.06116 12.59606,13.40417 3.6885,14.51458 -10.13793,32.49639 -25.74526,25.29989 -3.20254,-1.47668 -9.58275,-7.17991 -6.39694,-16.89535"
       transform="matrix(1.3326056,0,0,1.3326056,5.9750923,-46.567997)" />
    <path
       style="fill:#ac0811;fill-opacity:1;stroke:#ac0811;stroke-width:2;stroke-linecap:round;stroke-linejoin:miter;stroke-dasharray:none;stroke-opacity:1"
       d="m 219.38794,200.9792 c 13.1316,0.30026 35.75808,-0.734 36.36157,7.5074 0.63061,8.61179 -8.85808,9.74497 -10.72521,16.37264 -3.68501,13.08052 -13.49991,29.87249 -25.63116,30.15003 m 0.003,-54.03007 c -13.1316,0.30026 -35.75808,-0.734 -36.36157,7.5074 -0.63061,8.61179 8.85808,9.74497 10.72521,16.37264 3.68501,13.08052 13.49991,29.87249 25.63116,30.15003"
       id="path4"
       sodipodi:nodetypes="cssc"
       inkscape:path-effect="#path-effect4"
       inkscape:original-d="m 219.38794,200.9792 c 13.1316,0.30026 35.75808,-0.734 36.36157,7.5074 0.63061,8.61179 -8.85808,9.74497 -10.72521,16.37264 -3.68501,13.08052 -13.49991,29.87249 -25.63116,30.15003"
       transform="matrix(1.3326056,0,0,1.3326056,5.9750923,-46.567997)" />
    <path
       style="fill:#000000;fill-opacity:1;stroke:#000000;stroke-width:20;stroke-linecap:round;stroke-linejoin:miter;stroke-dasharray:none;stroke-opacity:1"
       d="m 260.21032,264.54075 c 7.94581,-2.63772 15.0119,-9.14564 20.08205,-16.47141 5.19725,-7.50941 9.56348,-12.22676 17.50573,-14.89842 m -119.35366,31.36983 c -7.94581,-2.63772 -15.0119,-9.14564 -20.08205,-16.47141 -5.19725,-7.50941 -9.56348,-12.22676 -17.50573,-14.89842"
       id="path5"
       sodipodi:nodetypes="csc"
       transform="matrix(1.3326056,0,0,1.3326056,5.9750923,-46.567997)"
       inkscape:original-d="m 260.21032,264.54075 c 7.94581,-2.63772 15.0119,-9.14564 20.08205,-16.47141 5.19725,-7.50941 9.56348,-12.22676 17.50573,-14.89842"
       inkscape:path-effect="#path-effect5" />
    <path
       style="fill:#ae500d;fill-opacity:1;stroke:#ae500d;stroke-width:2;stroke-linecap:butt;stroke-linejoin:miter;stroke-dasharray:none;stroke-opacity:1"
       d="m 219.39668,135.87493 c 16.99538,-0.0159 50.01289,0.30479 70.42435,10.50501 23.88407,11.93559 33.32446,33.40545 37.00131,39.56938 10.58672,17.74775 16.50987,76.06827 15.69617,95.91199 -0.64063,15.62309 -5.06216,13.80477 -11.43956,13.74814 -5.89914,-0.0524 -12.56956,2.07513 -12.07837,-12.48933 0.2275,-6.74534 8.06956,-51.78852 -16.02717,-73.19157 -6.96085,-6.18272 -53.33421,-12.48438 -83.58329,-12.31739 m 0.008,-61.73623 c -16.99538,-0.0159 -50.01289,0.30479 -70.42435,10.50501 -23.88407,11.93559 -33.32446,33.40545 -37.00131,39.56938 -10.58672,17.74775 -16.50987,76.06827 -15.69617,95.91199 0.64063,15.62309 5.06216,13.80477 11.43956,13.74814 5.89914,-0.0524 12.56956,2.07513 12.07837,-12.48933 -0.2275,-6.74534 -8.06956,-51.78852 16.02717,-73.19157 6.96085,-6.18272 53.33421,-12.48438 83.58329,-12.31739"
       id="path6"
       sodipodi:nodetypes="cssssssc"
       inkscape:path-effect="#path-effect6"
       inkscape:original-d="m 219.39668,135.87493 c 16.99538,-0.0159 50.01289,0.30479 70.42435,10.50501 23.88407,11.93559 33.32446,33.40545 37.00131,39.56938 10.58672,17.74775 16.50987,76.06827 15.69617,95.91199 -0.64063,15.62309 -5.06216,13.80477 -11.43956,13.74814 -5.89914,-0.0524 -12.56956,2.07513 -12.07837,-12.48933 0.2275,-6.74534 8.06956,-51.78852 -16.02717,-73.19157 -6.96085,-6.18272 -53.33421,-12.48438 -83.58329,-12.31739"
       transform="matrix(1.3326056,0,0,1.3326056,5.9750923,-46.567997)" />
    <path
       style="fill:#d3a949;fill-opacity:1;stroke:#d3a949;stroke-width:2;stroke-linecap:round;stroke-linejoin:miter;stroke-dasharray:none;stroke-opacity:1"
       d="m 219.52282,260.72484 c 10.5136,0.2425 19.87861,12.67506 27.06774,18.72817 9.67281,8.14432 15.00797,4.9238 16.08447,18.2605 -0.23782,9.58626 -8.1176,13.46423 -13.77694,23.12485 -7.97316,13.61038 -13.21731,26.81682 -29.3768,27.24738 m 0.001,-87.3609 c -10.5136,0.2425 -19.87861,12.67506 -27.06774,18.72817 -9.67281,8.14432 -15.00797,4.9238 -16.08447,18.2605 0.23782,9.58626 8.1176,13.46423 13.77694,23.12485 7.97316,13.61038 13.21731,26.81682 29.3768,27.24738"
       id="path1"
       sodipodi:nodetypes="cscsc"
       inkscape:path-effect="#path-effect1"
       inkscape:original-d="m 219.52282,260.72484 c 10.5136,0.2425 19.87861,12.67506 27.06774,18.72817 9.67281,8.14432 15.00797,4.9238 16.08447,18.2605 -0.23782,9.58626 -8.1176,13.46423 -13.77694,23.12485 -7.97316,13.61038 -13.21731,26.81682 -29.3768,27.24738"
       transform="matrix(1.3326056,0,0,1.3326056,5.9750923,-46.567997)" />
    <path
       style="fill:none;stroke:#ae500d;stroke-width:20;stroke-linecap:round;stroke-linejoin:miter;stroke-dasharray:none;stroke-opacity:1"
       d="m 330.57821,303.94624 c -4.67799,25.2587 3.48406,35.04145 1.40374,51.54362 -1.39545,11.06943 -11.59868,23.85736 -17.6426,35.12912 -6.17297,11.51242 -6.5634,29.7849 -2.00908,39.2945 M 108.45797,303.94624 c 4.67799,25.2587 -3.48406,35.04145 -1.40374,51.54362 1.39545,11.06943 11.59868,23.85736 17.6426,35.12912 6.17297,11.51242 6.5634,29.7849 2.00908,39.2945"
       id="path7"
       sodipodi:nodetypes="cssc"
       inkscape:path-effect="#path-effect7"
       inkscape:original-d="m 330.57821,303.94624 c -4.67799,25.2587 3.48406,35.04145 1.40374,51.54362 -1.39545,11.06943 -11.59868,23.85736 -17.6426,35.12912 -6.17297,11.51242 -6.5634,29.7849 -2.00908,39.2945"
       transform="matrix(1.3326056,0,0,1.3326056,5.9750923,-29.61295)" />
    <path
       style="fill:#ac0811;fill-opacity:1;stroke:#ac0811;stroke-width:2.6652;stroke-linecap:butt;stroke-linejoin:miter;stroke-dasharray:none;stroke-opacity:1"
       d="m 252.51635,132.26766 c -1.7451,0.34642 -5.16075,-2.32014 -4.65401,-5.98612 1.07802,-7.7989 5.72996,-21.82086 3.51938,-31.232593 -5.19104,-22.101191 -7.09943,-44.826888 2.4667,-47.942978 15.25455,-4.969054 17.92588,22.757589 19.39094,22.524192 4.83903,-0.770899 -19.02505,-58.843508 12.28772,-59.252812 18.35877,-0.239976 15.9389,34.835644 17.1327,34.965547 2.99234,0.325607 -0.0951,-43.328618 27.66273,-40.6708501 20.71255,1.9832024 17.74083,38.8238071 5.19744,68.6309881 -4.41105,10.48213 -8.71198,24.019804 -6.7028,33.904926 1.14028,5.61012 7.67884,12.06193 9.95828,16.85689 1.89342,3.9829 -0.0681,6.88807 -2.11978,6.61925 -29.01807,-2.45314 -54.55775,-1.85883 -84.1393,1.58356 z"
       id="path10"
       sodipodi:nodetypes="csssssssssscc" />
  </g>
</svg>
